<svg xmlns="http://www.w3.org/2000/svg" viewBox="0 0 223.459139 223.459139">
  <g transform="translate(-4.000000,185.746129) scale(0.100000,-0.100000)" fill="#111111">
    <path d="M40 1416 c0 -13 13 -24 350 -297 124 -100 239 -194 257 -209 28 -25 152 -232 421 -705 43 -76 84 -141 90 -143 9 -3 88 121 172 273 19 33 61 105 94 160 33 55 65 109 71 120 6 11 43 74 83 141 62 105 82 129 149 185 43 35 155 127 248 204 94 77 200 164 238 194 37 29 64 57 61 62 -3 5 -8 7 -12 5 -4 -2 -104 -44 -222 -94 -118 -49 -281 -118 -362 -152 l-147 -62 -167 -262 c-92 -143 -175 -270 -185 -281 -17 -17 -21 -18 -33 -5 -18 18 -303 448 -337 507 -13 24 -27 43 -31 43 -6 0 -342 149 -478 212 -173 80 -260 115 -260 104z"/>
    <path d="M106 1228 c8 -13 74 -105 203 -280 57 -78 74 -93 178 -160 141 -91 193 -121 198 -117 2 2 -20 43 -48 91 -55 92 -54 91 -404 384 -101 86 -147 115 -127 82z"/>
    <path d="M2185 1220 c-11 -9 -105 -88 -210 -175 -223 -185 -252 -212 -269 -245 -6 -14 -25 -46 -40 -72 -17 -30 -23 -48 -15 -48 6 0 68 35 137 77 114 71 131 86 196 168 78 98 218 282 230 303 10 17 -6 13 -29 -8z"/>
    <path d="M1057 976 c-46 -17 -43 -13 -50 -57 -4 -29 -2 -37 16 -45 19 -8 22 -17 22 -74 0 -62 3 -70 55 -152 30 -49 57 -88 60 -88 3 0 31 42 63 92 l57 93 0 107 c0 101 -1 108 -22 119 -35 19 -157 22 -201 5z"/>
    <path d="M440 746 c0 -3 35 -38 77 -78 42 -40 120 -114 172 -164 208 -197 218 -200 125 -34 l-57 100 -121 69 c-66 38 -138 79 -158 91 -21 12 -38 19 -38 16z"/>
    <path d="M1790 699 c-41 -27 -107 -68 -146 -90 -67 -39 -73 -46 -130 -142 -68 -116 -70 -121 -56 -116 15 6 422 383 422 391 0 14 -13 7 -90 -43z"/>
  </g>
</svg>
